# xmcd
#
# Track frame offsets:
# 150
# 11111
# 25375
# 36264
# 57388
# 70857
# 89501
# 102142
# 115666
# 128634
# 144800
# 156533
# 172897
# 185197
#
# Disc length: 2657 seconds
#
#
# Revision: 1
# Processed by: cddbd v1.5.1PL0 Copyright (c) Steve Scherf et al.
# Submitted via: FreeRIP 2.90 
#
DISCID=bf0a5f0e
DTITLE=Breno Reis e Marco Viola - Volume 3
DYEAR=2002
DGENRE=Country
TTITLE0=Chegou o piracicabano
TTITLE1=Prisioneiro
TTITLE2=Rabo de saia
TTITLE3=Morrer de amor
TTITLE4=Nao estou fazendo nada
TTITLE5=Esse amor e demais
TTITLE6=O telefonema
TTITLE7=Comitiva pantaneira
TTITLE8=Viola pagodeira
TTITLE9=Ja virou rotina
TTITLE10=Sete flechas
TTITLE11=Por favor nao va
TTITLE12=Bebendo todas
TTITLE13=Saudade de Cuiaba
EXTD=YEAR: 2002 ID3G: 2
EXTT0=
EXTT1=
EXTT2=
EXTT3=
EXTT4=
EXTT5=
EXTT6=
EXTT7=
EXTT8=
EXTT9=
EXTT10=
EXTT11=
EXTT12=
EXTT13=
PLAYORDER=
